<svg xmlns="http://www.w3.org/2000/svg" xmlns:xlink="http://www.w3.org/1999/xlink" viewBox="0 0 262.84 61.16"><defs><style>.cls-1{fill:#121118;}.cls-2{fill:#131118;}.cls-3{fill:#131119;}.cls-4{fill:#131219;}.cls-5{fill:#14121a;}.cls-6{fill:url(#linear-gradient);}.cls-7{font-size:12.6px;fill:#1d1d1b;font-family:CenturyGothic, Century Gothic;}.cls-8{fill:#f8ad1a;}.cls-9{fill:#f3d523;}.cls-10{fill:#eeb619;}.cls-11{fill:#f28a1c;}.cls-12{fill:#f28b1d;}.cls-13{fill:#f4c01e;}</style><linearGradient id="linear-gradient" x1="57.62" y1="33.95" x2="133.14" y2="33.95" gradientUnits="userSpaceOnUse"><stop offset="0" stop-color="#598791" stop-opacity="0.1"/><stop offset="0.28" stop-color="#50bfd6"/><stop offset="0.34" stop-color="#3eb9db"/><stop offset="0.5" stop-color="#19ace4"/><stop offset="0.82" stop-color="#2976bb"/><stop offset="1" stop-color="#315ca7"/></linearGradient></defs><g id="Layer_2" data-name="Layer 2"><g id="Layer_1-2" data-name="Layer 1"><path class="cls-1" d="M41,25.21V24a6.32,6.32,0,0,1-8.53,0A5.72,5.72,0,0,1,32,16.72a5.63,5.63,0,0,1,4.44-2.22A5.32,5.32,0,0,1,41,16.56V.88c0-.29.1-.65-.23-.82s-.62.12-.88.31Q30.75,7,21.67,13.58c-.45.32-.88.65-1.47,1.09h.9a2.82,2.82,0,0,1,2.7,1.88,2.59,2.59,0,0,1-1.1,3.06c-.48.26-.15.4.1.56A2.68,2.68,0,0,1,24,23.31a2.65,2.65,0,0,1-2.59,2.08c-1.86.05-3.72,0-5.58.05-.6,0-.75-.18-.74-.75,0-2.06,0-4.12,0-6.24a2.25,2.25,0,0,0-.25.06L.48,29c-.21.15-.47.28-.39.6s.44.28.7.28q19.68,0,39.36,0c.62,0,.83-.21.81-.82C40.93,27.79,41,26.5,41,25.21Zm-12.83.23c-1.72,0-1.72,0-1.72-1.67,0-2.81,0-5.62,0-8.44,0-.52.13-.68.66-.67,1.62,0,1.62,0,1.62,1.58v3.87c0,1.57,0,3.14,0,4.71C28.69,25.25,28.62,25.43,28.12,25.44Z"/><path class="cls-2" d="M85.72,22.11c.9-2.33,1.78-4.52,2.59-6.73.24-.63.55-.9,1.23-.81a7.5,7.5,0,0,0,1.34,0c.45,0,.55.16.55.58,0,3.26,0,6.52,0,9.78,0,.43-.13.57-.56.57-1.42,0-1.42.05-1.42-1.37V17.52l-.1,0-1.57,3.9c-.47,1.17-.94,2.34-1.39,3.51-.13.33-.21.63-.7.62s-.52-.3-.64-.6l-3-7.55c0,.28-.06.44-.06.59,0,2.3,0,4.6,0,6.9,0,.46-.06.67-.6.66-1.38,0-1.38,0-1.38-1.37,0-2.95,0-5.91,0-8.87,0-.56.15-.71.71-.71,2.08,0,2.08,0,2.83,2S85,20.16,85.72,22.11Z"/><path class="cls-3" d="M67.86,17.58c0,2.4,0,4.79,0,7.18,0,.56-.12.77-.73.75-1.27-.05-1.27,0-1.27-1.27,0-3,0-6,0-8.94,0-.61.19-.74.76-.73,2,0,2,0,2.74,1.85s1.45,3.69,2.22,5.66c.37-.92.71-1.75,1-2.58.57-1.46,1.15-2.91,1.68-4.38a.71.71,0,0,1,.83-.55c.69.07,1.62-.3,2,.16s.12,1.3.12,2c0,2.72,0,5.45,0,8.17,0,.48-.13.64-.63.64-1.35,0-1.35,0-1.35-1.31V17.59l-.11,0c-.29.74-.6,1.48-.89,2.22q-1,2.6-2.07,5.2c-.12.3-.2.53-.61.54s-.56-.22-.69-.54c-.89-2.26-1.8-4.52-2.7-6.77-.08-.21-.19-.42-.28-.63Z"/><path class="cls-3" d="M110.52,21.8c-.2-.33-.34-.53.2-.74a3.12,3.12,0,0,0,2-3.41,3.14,3.14,0,0,0-2.73-3,42.47,42.47,0,0,0-5.29-.11c-.43,0-.42.27-.41.56v9c0,1.35,0,1.34,1.33,1.34.49,0,.67-.11.65-.62,0-1,0-1.93,0-2.89,0-.16-.06-.33.07-.47a2.5,2.5,0,0,1,2,.28,24.59,24.59,0,0,1,1.44,2.48,1.88,1.88,0,0,0,2.26,1.23c.65-.1.73-.13.38-.69C111.81,23.81,111.17,22.8,110.52,21.8Zm-1.24-2.15a18.92,18.92,0,0,1-2.61.06c-.29,0-.41-.13-.4-.43s0-.84,0-1.26c0-1.68,0-1.68,1.67-1.68.37,0,.75,0,1.13,0a1.66,1.66,0,0,1,.2,3.3Z"/><path class="cls-2" d="M64.05,19.89a5.58,5.58,0,0,0-6.7-5.34c-2.54.55-4.13,2.78-4.09,5.72a5.4,5.4,0,1,0,10.79,0Zm-2.11,1.42a3.34,3.34,0,0,1-3.52,2.61,3.47,3.47,0,0,1-3.18-3.36c0-.17,0-.33,0-.5a3.62,3.62,0,0,1,1.86-3.52A3.4,3.4,0,0,1,62,19.09,5.05,5.05,0,0,1,61.94,21.31Z"/><path class="cls-4" d="M94.13,20c0-1.6,0-3.19,0-4.79,0-.52.13-.69.67-.68,2.07,0,4.14,0,6.21,0,.56,0,.72.19.66.7a1.61,1.61,0,0,0,0,.49c0,.46-.14.61-.6.6-1.44,0-2.88,0-4.31,0-.54,0-.71.15-.66.67s-.2,1.51.13,1.91,1.28.13,2,.15q1.41,0,2.82,0c.42,0,.63.11.59.55a3.42,3.42,0,0,0,0,.64c0,.44-.18.55-.59.55-1.39,0-2.78,0-4.17,0-.6,0-.79.18-.73.75s-.3,1.65.15,2.09,1.35.11,2.05.12c.92,0,1.84,0,2.76,0,.45,0,.62.13.61.6,0,1.43.11,1.16-1.15,1.17-1.91,0-3.82,0-5.72,0-.54,0-.68-.16-.67-.68C94.15,23.23,94.13,21.63,94.13,20Z"/><path class="cls-3" d="M125.6,20.06c0-1.61,0-3.23,0-4.85,0-.49.13-.65.63-.64q3.12,0,6.22,0c.51,0,.77.11.69.66a2.1,2.1,0,0,0,0,.56c.05.45-.16.56-.58.55-1.46,0-2.92,0-4.38,0-.45,0-.63.11-.59.58a13.61,13.61,0,0,1,0,1.69c0,.38.13.47.49.47,1.44,0,2.88,0,4.31,0,.51,0,.68.15.62.63a1.82,1.82,0,0,0,0,.57c.06.45-.16.54-.57.54-1.39,0-2.78,0-4.17,0-.51,0-.73.1-.68.65a10.6,10.6,0,0,1,0,1.69c0,.49.11.65.61.64,1.42,0,2.83,0,4.24,0,.83,0,.68.45.7.93s0,.88-.7.86c-2.05-.05-4.1,0-6.15,0-.59,0-.7-.2-.69-.73C125.62,23.21,125.6,21.64,125.6,20.06Z"/><path class="cls-3" d="M48,25.67a5.43,5.43,0,0,1-5.46-6.06,5.44,5.44,0,0,1,7.6-4.79,5,5,0,0,1,1.93,1.61c.24.32.23.54-.17.69a1.82,1.82,0,0,0-.43.24c-.47.36-.79.33-1.2-.18a2.85,2.85,0,0,0-3.08-.9,3.41,3.41,0,0,0-2.52,2.5,3.92,3.92,0,0,0,2.35,5,2.86,2.86,0,0,0,3.22-.82.83.83,0,0,1,1.27-.22c.9.54.92.51.22,1.32A4.54,4.54,0,0,1,48,25.67Z"/><path class="cls-3" d="M119.64,14.34a4.76,4.76,0,0,1,3.89,1.94c.29.39.35.64-.17.84a1.58,1.58,0,0,0-.36.2c-.47.33-.77.3-1.2-.18-1.7-1.91-4.75-1-5.57,1.53a3.91,3.91,0,0,0,2.54,5.1,2.89,2.89,0,0,0,3.11-1c.33-.39.59-.46,1-.2a2.42,2.42,0,0,0,.5.27c.52.18.47.44.17.82A4.73,4.73,0,0,1,119,25.6a5.15,5.15,0,0,1-4.52-3.49,5.59,5.59,0,0,1,4-7.61A10.16,10.16,0,0,1,119.64,14.34Z"/><path class="cls-3" d="M41,17c0,.76,0,1.41,0,2.06,0,.4-.15.45-.49.45-1.2,0-2.4,0-3.6,0-.54,0-.76.11-.74.7,0,1.29,0,1.29,1.3,1.29a2.6,2.6,0,0,1,.56,0c.33.08.81-.27,1,.23a1.19,1.19,0,0,1-.64,1.56,3.48,3.48,0,0,1-4.84-1.69,3.62,3.62,0,0,1,2.11-4.93,3,3,0,0,1,3.25.76.67.67,0,0,0,1,.13C40.2,17.32,40.55,17.18,41,17Z"/><path class="cls-5" d="M19.22,23.46c-1.88,0-1.86,0-1.87-1.87,0-.53.16-.71.69-.68.75,0,1.5,0,2.26,0,1,0,1.58.52,1.56,1.32s-.56,1.19-1.51,1.22Z"/><path class="cls-3" d="M19.17,16.66c.47,0,.94,0,1.41,0a1.05,1.05,0,0,1,1,1.1,1,1,0,0,1-.95,1.15c-1,.06-1.93,0-2.89,0-.29,0-.44-.12-.41-.42a.08.08,0,0,0,0-.07C17.26,16.65,17.26,16.65,19.17,16.66Z"/><path class="cls-6" d="M84.21,33.18A3.17,3.17,0,0,0,83,33H80.5a.23.23,0,0,0-.16.06.24.24,0,0,0-.06.17v6a.2.2,0,0,0,.06.15.2.2,0,0,0,.16.07h.87a.19.19,0,0,0,.16-.07.2.2,0,0,0,.06-.15V37H83a3.17,3.17,0,0,0,1.25-.22,1.77,1.77,0,0,0,.83-.66,2,2,0,0,0,.3-1.14,2.06,2.06,0,0,0-.3-1.14A1.81,1.81,0,0,0,84.21,33.18Zm-.48,2.57a1.17,1.17,0,0,1-.81.25H81.57V34h1.35a1.07,1.07,0,0,1,.83.28A1,1,0,0,1,84,35,1,1,0,0,1,83.73,35.75Zm7.43-2.56a.46.46,0,0,0-.11-.16.28.28,0,0,0-.21-.07h-1a.28.28,0,0,0-.21.07.36.36,0,0,0-.11.16L87.3,39.12a.13.13,0,0,0,0,.08.17.17,0,0,0,.06.14.18.18,0,0,0,.13.06h.8a.25.25,0,0,0,.19-.06.42.42,0,0,0,.08-.12L89,38.1H91.7l.43,1.12a.42.42,0,0,0,.08.12.27.27,0,0,0,.19.06h.8a.18.18,0,0,0,.13-.06.17.17,0,0,0,.06-.14s0-.05,0-.08ZM89.29,37l1-2.84,1,2.84ZM100,36.76a1.92,1.92,0,0,0,.89-.66,1.79,1.79,0,0,0,.34-1.13,1.83,1.83,0,0,0-.65-1.5A2.74,2.74,0,0,0,98.78,33H96.39a.2.2,0,0,0-.15.06.21.21,0,0,0-.07.17v6a.24.24,0,0,0,.22.22h.84a.19.19,0,0,0,.16-.07.2.2,0,0,0,.06-.15V37h1.28l1.19,2.18a.61.61,0,0,0,.13.16.3.3,0,0,0,.24.09h.83a.2.2,0,0,0,.14-.06.17.17,0,0,0,.06-.14.22.22,0,0,0,0-.1Zm-.36-1.08a1.28,1.28,0,0,1-.84.25h-1.3V34h1.3a1.19,1.19,0,0,1,.84.26,1,1,0,0,1,.27.72A.94.94,0,0,1,99.59,35.68ZM108.8,33a.24.24,0,0,1,.06.17v.68a.2.2,0,0,1-.06.15.22.22,0,0,1-.17.07h-1.69v5.09a.18.18,0,0,1-.07.15.2.2,0,0,1-.16.07h-.85a.21.21,0,0,1-.16-.07.2.2,0,0,1-.06-.15V34.09h-1.7a.2.2,0,0,1-.16-.07.2.2,0,0,1-.06-.15v-.68a.24.24,0,0,1,.06-.17.23.23,0,0,1,.16-.06h4.69A.25.25,0,0,1,108.8,33Zm7.93,0a.24.24,0,0,1,.06.17v6a.22.22,0,0,1-.22.23h-.72a.2.2,0,0,1-.18-.07l-.08-.08-2.65-4v4a.2.2,0,0,1-.06.15.21.21,0,0,1-.17.07h-.77a.24.24,0,0,1-.22-.22v-6a.21.21,0,0,1,.07-.17.2.2,0,0,1,.15-.06h.71a.25.25,0,0,1,.19.06l.08.08,2.65,4.13v-4a.24.24,0,0,1,.06-.17.21.21,0,0,1,.16-.06h.77A.25.25,0,0,1,116.73,33Zm7.94,5.38a.25.25,0,0,1,.06.17v.61a.2.2,0,0,1-.06.15.22.22,0,0,1-.17.07h-4.12a.2.2,0,0,1-.16-.07.2.2,0,0,1-.06-.15v-6a.24.24,0,0,1,.06-.17.23.23,0,0,1,.16-.06h4.05a.23.23,0,0,1,.16.06.24.24,0,0,1,.07.17v.6a.22.22,0,0,1-.07.16.24.24,0,0,1-.16.07h-3v1.62h2.82a.24.24,0,0,1,.17.06.23.23,0,0,1,.06.16v.58a.23.23,0,0,1-.06.16.24.24,0,0,1-.17.06H121.4v1.68h3.1A.25.25,0,0,1,124.67,38.4Zm6.91-1.64a1.9,1.9,0,0,0,.9-.66,1.85,1.85,0,0,0,.34-1.13,1.83,1.83,0,0,0-.65-1.5,2.74,2.74,0,0,0-1.75-.51H128a.2.2,0,0,0-.15.06.21.21,0,0,0-.07.17v6a.24.24,0,0,0,.22.22h.84a.19.19,0,0,0,.16-.07.2.2,0,0,0,.06-.15V37h1.28l1.19,2.18a.83.83,0,0,0,.12.16.32.32,0,0,0,.24.09h.84a.18.18,0,0,0,.13-.06.17.17,0,0,0,.06-.14.2.2,0,0,0,0-.1Zm-.36-1.08a1.23,1.23,0,0,1-.83.25h-1.3V34h1.3a1.19,1.19,0,0,1,.84.26,1,1,0,0,1,.27.72A.91.91,0,0,1,131.22,35.68Zm1.92-7v.89a.19.19,0,0,1-.19.2H57.82a.2.2,0,0,1-.2-.2v-.89a.2.2,0,0,1,.2-.2H133A.19.19,0,0,1,133.14,28.71Z"/><text class="cls-7" transform="translate(0 57.3)">Top Bigcommerce Certified Partner in India</text><path class="cls-8" d="M154.76,31.57a.48.48,0,0,1-.62,0l-3.83-2-.23-.12a.37.37,0,0,1-.1-.3c0-1.23,0-2.45,0-3.68a1,1,0,0,1,0-.17.41.41,0,0,1,.05-.09c.15-.07.21.06.27.14l4.28,5.88A.71.71,0,0,1,154.76,31.57Z"/><path class="cls-9" d="M154.76,31.57a16.22,16.22,0,0,1-1.06-1.41c-1.1-1.49-2.19-3-3.29-4.51l-.28-.42.08-.05a.61.61,0,0,1,.35.06c1.08.37,2.18.7,3.27,1.07.12,0,.25.05.33.17l.78,4.58A.46.46,0,0,1,154.76,31.57Z"/><path class="cls-9" d="M147.41,21.74a.4.4,0,0,0,.25-.26l1.89-3.83c.11-.22.23-.43.53-.4a.54.54,0,0,1,.09.39q0,3.54,0,7.08a2.64,2.64,0,0,1,0,.29.25.25,0,0,1,0,.09c-.21.08-.25-.1-.33-.21l-1.91-2.62A2.58,2.58,0,0,0,147.41,21.74Z"/><path class="cls-9" d="M152.57,21.68l2.76.42,1.77.25c.25,0,.46.12.53.4a.52.52,0,0,1-.31.16l-6.63,2.16a1.23,1.23,0,0,1-.46.1.11.11,0,0,1-.08,0c-.07-.12,0-.21.07-.29.74-1,1.5-2.07,2.25-3.1A.23.23,0,0,1,152.57,21.68Z"/><path class="cls-8" d="M150.19,25.12a6.41,6.41,0,0,0,.88-.27l6.36-2.06.2,0a.52.52,0,0,1-.15.51l-3.32,3.22-2.9-.92a10.16,10.16,0,0,0-1.07-.33A.08.08,0,0,1,150.19,25.12Z"/><path class="cls-8" d="M152.57,21.68a17.68,17.68,0,0,1-1.17,1.66c-.42.6-.84,1.18-1.27,1.77a0,0,0,0,1-.06,0V17.25a.45.45,0,0,1,.46.3Z"/><path class="cls-9" d="M150.07,25.23c0,1.42,0,2.83,0,4.25-1,.51-2,1-3,1.54a.59.59,0,0,1-.18-.67c.07-.41.13-.82.22-1.23a.34.34,0,0,1,.08-.17l2.38-3.29a1.55,1.55,0,0,1,.37-.44A.11.11,0,0,1,150.07,25.23Z"/><path class="cls-8" d="M147.41,21.74a.27.27,0,0,1,.27.14L150,25.11a.13.13,0,0,1-.07.06.69.69,0,0,1-.4-.08c-1.29-.44-2.6-.83-3.89-1.27a.79.79,0,0,1-.28-.13c-.26-.29-.55-.56-.83-.83a1.33,1.33,0,0,1-.39-.65l2.71-.41Z"/><path class="cls-10" d="M145.4,23.63c0,.1.18,0,.24.12.7.68,1.43,1.34,2.12,2a.21.21,0,0,1,.08.12.14.14,0,0,1-.08.09l-1.4.47c-.12,0-.25.1-.37,0l-3.34-3.24a.44.44,0,0,1-.1-.56A17.65,17.65,0,0,1,145.4,23.63Z"/><path class="cls-11" d="M146,26.48,147.4,26a1.13,1.13,0,0,1,.37-.1.25.25,0,0,1,0,.25c-.14.87-.26,1.75-.46,2.61a.56.56,0,0,1-.07.16l-.06.12a3.36,3.36,0,0,1-.54.86c-.34.49-.7,1-1,1.43-.06.09-.11.22-.26.2a.48.48,0,0,1-.18-.52Z"/><path class="cls-10" d="M145.39,31.57l1.68-2.29.16-.2c-.06.37-.1.75-.18,1.12a1.16,1.16,0,0,0,.07.82c-.38.2-.76.41-1.14.6A.46.46,0,0,1,145.39,31.57Z"/><path class="cls-12" d="M145.4,23.63l-2.72-.88a.33.33,0,0,1-.13-.07.43.43,0,0,1,.39-.3c.4-.07.81-.11,1.21-.17.2.16.23.42.43.59A10.7,10.7,0,0,1,145.4,23.63Z"/><path class="cls-13" d="M150,25.12h.24v.11H150s0,0-.07,0A.09.09,0,0,1,150,25.12Z"/><path class="cls-8" d="M150,25.23H150l-2.65,3.68s0,0-.07.05c0-.58.19-1.14.27-1.71s.14-.87.21-1.31l.06-.05c.06-.1.17-.12.27-.16l1.49-.49C149.71,25.2,149.83,25.13,150,25.23Z"/><path class="cls-9" d="M150,25.23c-.6.14-1.17.38-1.76.56l-.36.1c-.05,0-.12,0-.16-.08l-2-1.94s-.08-.07,0-.12l.87.26,3.22,1a1.8,1.8,0,0,0,.22.06Z"/><path class="cls-8" d="M173.49,31.57a.48.48,0,0,1-.62,0l-3.82-2-.24-.12a.37.37,0,0,1-.1-.3c0-1.23,0-2.45,0-3.68a.51.51,0,0,1,0-.17.18.18,0,0,1,0-.09c.15-.07.21.06.28.14l4.27,5.88A.62.62,0,0,1,173.49,31.57Z"/><path class="cls-9" d="M173.49,31.57c-.39-.44-.71-.93-1.06-1.41-1.1-1.49-2.19-3-3.28-4.51l-.28-.42.08-.05a.58.58,0,0,1,.34.06c1.09.37,2.18.7,3.27,1.07.12,0,.25.05.33.17l.78,4.58A.46.46,0,0,1,173.49,31.57Z"/><path class="cls-9" d="M166.15,21.74c.14,0,.19-.15.25-.26l1.89-3.83c.1-.22.22-.43.52-.4a.51.51,0,0,1,.1.39v7.08a1.36,1.36,0,0,1,0,.29.25.25,0,0,1,0,.09c-.2.08-.25-.1-.33-.21-.64-.87-1.27-1.75-1.9-2.62A2.92,2.92,0,0,0,166.15,21.74Z"/><path class="cls-9" d="M171.3,21.68l2.76.42,1.78.25c.24,0,.46.12.52.4a.49.49,0,0,1-.3.16q-3.33,1.07-6.64,2.16a1.19,1.19,0,0,1-.46.1.13.13,0,0,1-.08,0c-.07-.12,0-.21.07-.29.75-1,1.5-2.07,2.26-3.1A.16.16,0,0,1,171.3,21.68Z"/><path class="cls-8" d="M168.93,25.12a6.73,6.73,0,0,0,.87-.27l6.36-2.06.2,0a.5.5,0,0,1-.15.51l-3.32,3.22-2.9-.92a9.32,9.32,0,0,0-1.06-.33S168.89,25.15,168.93,25.12Z"/><path class="cls-8" d="M171.3,21.68a17.58,17.58,0,0,1-1.16,1.66c-.42.6-.85,1.18-1.27,1.77a0,0,0,0,1-.06,0V17.25a.45.45,0,0,1,.46.3Z"/><path class="cls-9" d="M168.81,25.23v4.25l-3,1.54c-.24-.17-.22-.42-.18-.67.07-.41.14-.82.22-1.23A.67.67,0,0,1,166,29l2.38-3.29a1.77,1.77,0,0,1,.38-.44A.11.11,0,0,1,168.81,25.23Z"/><path class="cls-8" d="M166.15,21.74a.29.29,0,0,1,.27.14c.77,1.08,1.55,2.16,2.33,3.23a.16.16,0,0,1-.08.06.7.7,0,0,1-.4-.08c-1.29-.44-2.59-.83-3.88-1.27a.76.76,0,0,1-.29-.13c-.26-.29-.54-.56-.83-.83a1.4,1.4,0,0,1-.39-.65l2.71-.41Z"/><path class="cls-10" d="M164.13,23.63c.06.1.19,0,.24.12.7.68,1.43,1.34,2.12,2a.23.23,0,0,1,.09.12.2.2,0,0,1-.09.09l-1.4.47c-.12,0-.24.1-.37,0l-3.33-3.24a.44.44,0,0,1-.1-.56A17.54,17.54,0,0,1,164.13,23.63Z"/><path class="cls-11" d="M164.72,26.48l1.42-.44a1.14,1.14,0,0,1,.36-.1.28.28,0,0,1,.06.25c-.15.87-.26,1.75-.47,2.61A.52.52,0,0,1,166,29l-.06.12a3.4,3.4,0,0,1-.55.86c-.34.49-.69,1-1,1.43-.06.09-.11.22-.26.2a.47.47,0,0,1-.17-.52C164.21,29.52,164.47,28,164.72,26.48Z"/><path class="cls-10" d="M164.12,31.57c.56-.76,1.13-1.52,1.69-2.29l.16-.2c-.06.37-.1.75-.19,1.12a1.22,1.22,0,0,0,.07.82c-.38.2-.75.41-1.14.6A.46.46,0,0,1,164.12,31.57Z"/><path class="cls-12" d="M164.13,23.63l-2.72-.88a.37.37,0,0,1-.12-.07.41.41,0,0,1,.38-.3c.41-.07.81-.11,1.21-.17.2.16.23.42.43.59A10.7,10.7,0,0,1,164.13,23.63Z"/><path class="cls-13" d="M168.69,25.12h.24v.11h-.18s-.05,0-.07,0A.07.07,0,0,1,168.69,25.12Z"/><path class="cls-8" d="M168.69,25.23h.06l-2.65,3.68L166,29c0-.58.19-1.14.26-1.71s.14-.87.21-1.31l.06-.05a.53.53,0,0,1,.28-.16l1.48-.49C168.44,25.2,168.56,25.13,168.69,25.23Z"/><path class="cls-9" d="M168.69,25.23c-.6.14-1.17.38-1.76.56l-.37.1a.71.71,0,0,1-.15-.08l-2-1.94s-.08-.07,0-.12l.87.26,3.22,1a1.55,1.55,0,0,0,.23.06Z"/><path class="cls-8" d="M191.49,31.57a.48.48,0,0,1-.62,0l-3.82-2-.24-.12a.37.37,0,0,1-.1-.3c0-1.23,0-2.45,0-3.68a.51.51,0,0,1,0-.17.18.18,0,0,1,0-.09c.15-.07.21.06.27.14l4.28,5.88A.71.71,0,0,1,191.49,31.57Z"/><path class="cls-9" d="M191.49,31.57c-.39-.44-.71-.93-1.06-1.41-1.1-1.49-2.19-3-3.29-4.51l-.27-.42a.16.16,0,0,1,.08-.05.58.58,0,0,1,.34.06c1.08.37,2.18.7,3.27,1.07.12,0,.25.05.33.17l.78,4.58A.46.46,0,0,1,191.49,31.57Z"/><path class="cls-9" d="M184.15,21.74c.14,0,.19-.15.25-.26.62-1.28,1.25-2.56,1.89-3.83.1-.22.22-.43.52-.4a.51.51,0,0,1,.1.39v7.08a1.36,1.36,0,0,1,0,.29.25.25,0,0,1,0,.09c-.2.08-.25-.1-.33-.21-.64-.87-1.27-1.75-1.9-2.62A2.92,2.92,0,0,0,184.15,21.74Z"/><path class="cls-9" d="M189.3,21.68l2.76.42,1.78.25c.24,0,.45.12.52.4a.49.49,0,0,1-.3.16q-3.33,1.07-6.64,2.16a1.19,1.19,0,0,1-.46.1.13.13,0,0,1-.08,0c-.07-.12,0-.21.07-.29.75-1,1.5-2.07,2.26-3.1A.16.16,0,0,1,189.3,21.68Z"/><path class="cls-8" d="M186.93,25.12a6.73,6.73,0,0,0,.87-.27l6.36-2.06.2,0a.5.5,0,0,1-.15.51l-3.32,3.22-2.9-.92a10,10,0,0,0-1.06-.33S186.89,25.15,186.93,25.12Z"/><path class="cls-8" d="M189.3,21.68a19.65,19.65,0,0,1-1.16,1.66c-.42.6-.85,1.18-1.27,1.77a0,0,0,0,1-.06,0V17.25a.45.45,0,0,1,.46.3Z"/><path class="cls-9" d="M186.81,25.23v4.25l-3,1.54c-.24-.17-.22-.42-.18-.67.07-.41.13-.82.22-1.23A.45.45,0,0,1,184,29l2.38-3.29a1.59,1.59,0,0,1,.38-.44A.11.11,0,0,1,186.81,25.23Z"/><path class="cls-8" d="M184.15,21.74a.29.29,0,0,1,.27.14c.77,1.08,1.55,2.16,2.33,3.23a.16.16,0,0,1-.08.06.7.7,0,0,1-.4-.08c-1.29-.44-2.59-.83-3.88-1.27a.76.76,0,0,1-.29-.13c-.26-.29-.54-.56-.83-.83a1.4,1.4,0,0,1-.39-.65l2.71-.41Z"/><path class="cls-10" d="M182.13,23.63c.06.1.19,0,.24.12.7.68,1.43,1.34,2.12,2a.17.17,0,0,1,.08.12.14.14,0,0,1-.08.09l-1.4.47c-.12,0-.24.1-.37,0l-3.33-3.24a.43.43,0,0,1-.1-.56A17.54,17.54,0,0,1,182.13,23.63Z"/><path class="cls-11" d="M182.72,26.48l1.42-.44a1.07,1.07,0,0,1,.36-.1.28.28,0,0,1,.06.25c-.15.87-.26,1.75-.47,2.61A.52.52,0,0,1,184,29l-.06.12a3.4,3.4,0,0,1-.55.86c-.34.49-.69,1-1,1.43-.06.09-.11.22-.26.2a.47.47,0,0,1-.17-.52C182.21,29.52,182.47,28,182.72,26.48Z"/><path class="cls-10" d="M182.12,31.57l1.69-2.29.16-.2c-.06.37-.1.75-.19,1.12a1.22,1.22,0,0,0,.07.82c-.38.2-.75.41-1.14.6A.46.46,0,0,1,182.12,31.57Z"/><path class="cls-12" d="M182.13,23.63l-2.72-.88a.37.37,0,0,1-.12-.07.41.41,0,0,1,.38-.3c.41-.07.81-.11,1.21-.17.2.16.23.42.43.59A10.7,10.7,0,0,1,182.13,23.63Z"/><path class="cls-13" d="M186.69,25.12h.24v.11h-.18s-.05,0-.07,0A.07.07,0,0,1,186.69,25.12Z"/><path class="cls-8" d="M186.69,25.23h.06l-2.65,3.68L184,29c0-.58.19-1.14.26-1.71s.14-.87.21-1.31l.06-.05a.53.53,0,0,1,.28-.16l1.48-.49C186.44,25.2,186.56,25.13,186.69,25.23Z"/><path class="cls-9" d="M186.69,25.23c-.6.14-1.17.38-1.76.56l-.37.1a.71.71,0,0,1-.15-.08c-.68-.64-1.34-1.29-2-1.94,0,0-.08-.07,0-.12l.87.26,3.22,1a1.55,1.55,0,0,0,.23.06Z"/><path class="cls-8" d="M209.36,31.57a.48.48,0,0,1-.62,0l-3.82-2c-.08-.05-.16-.08-.24-.12a.37.37,0,0,1-.1-.3c0-1.23,0-2.45,0-3.68a.51.51,0,0,1,0-.17.18.18,0,0,1,0-.09c.15-.07.21.06.27.14l4.28,5.88A.71.71,0,0,1,209.36,31.57Z"/><path class="cls-9" d="M209.36,31.57c-.39-.44-.71-.93-1.06-1.41-1.1-1.49-2.19-3-3.29-4.51l-.27-.42a.16.16,0,0,1,.08-.05.58.58,0,0,1,.34.06c1.08.37,2.18.7,3.27,1.07.12,0,.25.05.33.17l.78,4.58A.46.46,0,0,1,209.36,31.57Z"/><path class="cls-9" d="M202,21.74c.14,0,.19-.15.25-.26.62-1.28,1.25-2.56,1.89-3.83.1-.22.22-.43.52-.4a.51.51,0,0,1,.1.39v7.08a1.36,1.36,0,0,1,0,.29.25.25,0,0,1,0,.09c-.2.08-.25-.1-.33-.21-.64-.87-1.27-1.75-1.9-2.62A2.92,2.92,0,0,0,202,21.74Z"/><path class="cls-9" d="M207.17,21.68l2.76.42,1.78.25c.24,0,.45.12.52.4a.49.49,0,0,1-.3.16q-3.33,1.07-6.64,2.16a1.19,1.19,0,0,1-.46.1.13.13,0,0,1-.08,0c-.07-.12,0-.21.07-.29.75-1,1.5-2.07,2.26-3.1A.16.16,0,0,1,207.17,21.68Z"/><path class="cls-8" d="M204.8,25.12a6.73,6.73,0,0,0,.87-.27L212,22.79l.2,0a.5.5,0,0,1-.15.51l-3.32,3.22-2.9-.92a10,10,0,0,0-1.06-.33S204.76,25.15,204.8,25.12Z"/><path class="cls-8" d="M207.17,21.68A19.65,19.65,0,0,1,206,23.34c-.42.6-.85,1.18-1.27,1.77a0,0,0,0,1-.06,0V17.25a.45.45,0,0,1,.46.3Z"/><path class="cls-9" d="M204.68,25.23v4.25l-3,1.54c-.24-.17-.22-.42-.18-.67.07-.41.13-.82.22-1.23a.45.45,0,0,1,.08-.17l2.38-3.29a1.59,1.59,0,0,1,.38-.44A.11.11,0,0,1,204.68,25.23Z"/><path class="cls-8" d="M202,21.74a.29.29,0,0,1,.27.14c.77,1.08,1.55,2.16,2.33,3.23a.16.16,0,0,1-.08.06.7.7,0,0,1-.4-.08c-1.29-.44-2.6-.83-3.88-1.27a.76.76,0,0,1-.29-.13c-.26-.29-.54-.56-.83-.83a1.4,1.4,0,0,1-.39-.65l2.71-.41Z"/><path class="cls-10" d="M200,23.63c.06.1.19,0,.24.12.7.68,1.43,1.34,2.12,2a.21.21,0,0,1,.08.12.14.14,0,0,1-.08.09l-1.4.47c-.12,0-.24.1-.37,0l-3.33-3.24a.43.43,0,0,1-.1-.56A17.54,17.54,0,0,1,200,23.63Z"/><path class="cls-11" d="M200.59,26.48,202,26a1.07,1.07,0,0,1,.36-.1.28.28,0,0,1,.06.25c-.15.87-.26,1.75-.47,2.61a.52.52,0,0,1-.06.16l-.06.12a3.4,3.4,0,0,1-.55.86c-.34.49-.69,1-1,1.43-.06.09-.11.22-.26.2a.47.47,0,0,1-.17-.52C200.08,29.52,200.33,28,200.59,26.48Z"/><path class="cls-10" d="M200,31.57l1.69-2.29.16-.2c-.06.37-.1.75-.19,1.12a1.22,1.22,0,0,0,.07.82c-.38.2-.75.41-1.14.6A.46.46,0,0,1,200,31.57Z"/><path class="cls-12" d="M200,23.63l-2.72-.88a.37.37,0,0,1-.12-.07.41.41,0,0,1,.38-.3c.41-.07.81-.11,1.21-.17.2.16.23.42.43.59A10.7,10.7,0,0,1,200,23.63Z"/><path class="cls-13" d="M204.56,25.12h.24v.11h-.18a.06.06,0,0,1-.08,0A.08.08,0,0,1,204.56,25.12Z"/><path class="cls-8" d="M204.56,25.23h.06L202,28.91l-.07.05c0-.58.19-1.14.26-1.71s.14-.87.21-1.31l.06-.05a.53.53,0,0,1,.28-.16l1.48-.49C204.31,25.2,204.43,25.13,204.56,25.23Z"/><path class="cls-9" d="M204.56,25.23c-.6.14-1.17.38-1.76.56l-.37.1a.71.71,0,0,1-.15-.08c-.68-.64-1.34-1.29-2-1.94,0,0-.08-.07,0-.12l.87.26,3.22,1a1.55,1.55,0,0,0,.23.06Z"/><path class="cls-8" d="M227.36,31.57a.48.48,0,0,1-.62,0l-3.82-2c-.08-.05-.16-.08-.24-.12a.37.37,0,0,1-.1-.3c0-1.23,0-2.45,0-3.68a1,1,0,0,1,0-.17.41.41,0,0,1,.05-.09c.15-.07.21.06.27.14l4.28,5.88A.71.71,0,0,1,227.36,31.57Z"/><path class="cls-9" d="M227.36,31.57c-.39-.44-.71-.93-1.06-1.41-1.1-1.49-2.19-3-3.29-4.51l-.27-.42a.18.18,0,0,1,.07-.05.59.59,0,0,1,.35.06c1.08.37,2.18.7,3.27,1.07.12,0,.25.05.33.17l.78,4.58A.46.46,0,0,1,227.36,31.57Z"/><path class="cls-9" d="M220,21.74c.15,0,.2-.15.26-.26.62-1.28,1.25-2.56,1.89-3.83.1-.22.22-.43.52-.4a.55.55,0,0,1,.1.39v7.08a1.36,1.36,0,0,1,0,.29.25.25,0,0,1,0,.09c-.2.08-.25-.1-.33-.21-.64-.87-1.27-1.75-1.9-2.62A3,3,0,0,0,220,21.74Z"/><path class="cls-9" d="M225.17,21.68l2.76.42,1.77.25c.25,0,.46.12.53.4a.52.52,0,0,1-.3.16q-3.33,1.07-6.64,2.16a1.19,1.19,0,0,1-.46.1.11.11,0,0,1-.08,0c-.07-.12,0-.21.07-.29l2.25-3.1A.23.23,0,0,1,225.17,21.68Z"/><path class="cls-8" d="M222.8,25.12a6.73,6.73,0,0,0,.87-.27L230,22.79l.2,0a.5.5,0,0,1-.15.51l-3.32,3.22-2.9-.92a10.76,10.76,0,0,0-1.06-.33S222.76,25.15,222.8,25.12Z"/><path class="cls-8" d="M225.17,21.68A17.68,17.68,0,0,1,224,23.34c-.41.6-.84,1.18-1.26,1.77a0,0,0,0,1-.06,0V17.25a.45.45,0,0,1,.46.3Z"/><path class="cls-9" d="M222.68,25.23v4.25l-3,1.54c-.24-.17-.22-.42-.18-.67.07-.41.13-.82.22-1.23a.45.45,0,0,1,.08-.17l2.38-3.29a1.44,1.44,0,0,1,.38-.44A.12.12,0,0,1,222.68,25.23Z"/><path class="cls-8" d="M220,21.74a.29.29,0,0,1,.28.14c.77,1.08,1.55,2.16,2.33,3.23a.16.16,0,0,1-.08.06.7.7,0,0,1-.4-.08c-1.29-.44-2.6-.83-3.88-1.27a.76.76,0,0,1-.29-.13c-.26-.29-.55-.56-.83-.83a1.33,1.33,0,0,1-.39-.65l2.71-.41Z"/><path class="cls-10" d="M218,23.63c.06.1.19,0,.24.12.7.68,1.43,1.34,2.12,2a.21.21,0,0,1,.08.12.14.14,0,0,1-.08.09l-1.4.47c-.12,0-.24.1-.37,0l-3.33-3.24a.43.43,0,0,1-.1-.56A17.54,17.54,0,0,1,218,23.63Z"/><path class="cls-11" d="M218.59,26.48,220,26a1.2,1.2,0,0,1,.37-.1.28.28,0,0,1,.06.25c-.15.87-.27,1.75-.47,2.61a.52.52,0,0,1-.06.16l-.06.12a3.4,3.4,0,0,1-.55.86c-.34.49-.69,1-1,1.43-.06.09-.11.22-.26.2a.47.47,0,0,1-.17-.52C218.08,29.52,218.33,28,218.59,26.48Z"/><path class="cls-10" d="M218,31.57l1.69-2.29.16-.2c-.06.37-.1.75-.19,1.12a1.16,1.16,0,0,0,.07.82l-1.14.6A.46.46,0,0,1,218,31.57Z"/><path class="cls-12" d="M218,23.63l-2.72-.88a.29.29,0,0,1-.12-.07.41.41,0,0,1,.38-.3c.4-.07.81-.11,1.21-.17.2.16.23.42.43.59A10.7,10.7,0,0,1,218,23.63Z"/><path class="cls-13" d="M222.55,25.12h.25v.11h-.18a.06.06,0,0,1-.08,0A.09.09,0,0,1,222.55,25.12Z"/><path class="cls-8" d="M222.56,25.23h.06L220,28.91l-.07.05c0-.58.19-1.14.26-1.71s.14-.87.21-1.31l.06-.05c.06-.1.18-.12.28-.16l1.48-.49C222.31,25.2,222.43,25.13,222.56,25.23Z"/><path class="cls-9" d="M222.56,25.23c-.6.14-1.17.38-1.76.56l-.37.1c-.05,0-.12,0-.15-.08-.68-.64-1.34-1.29-2-1.94,0,0-.08-.07,0-.12l.87.26,3.22,1a1.55,1.55,0,0,0,.23.06Z"/></g></g></svg>