<svg xmlns="http://www.w3.org/2000/svg" viewBox="0 0 262.84 61.32"><defs><style>.cls-1{fill:#4cabe1;}.cls-2{fill:#010101;}.cls-3{font-size:13.51px;fill:#1d1d1b;font-family:CenturyGothic, Century Gothic;}.cls-4{fill:#f8ad1a;}.cls-5{fill:#f3d523;}.cls-6{fill:#eeb619;}.cls-7{fill:#f28a1c;}.cls-8{fill:#f28b1d;}.cls-9{fill:#f4c01e;}</style></defs><g id="Layer_2" data-name="Layer 2"><g id="Layer_1-2" data-name="Layer 1"><path class="cls-1" d="M22.36,5.91.08,4.67,14.6,20.24ZM11.21,4.25,21.49,5,8.75,0ZM24.07,5l5.48-5,3.69,5.29Zm-.61,1L15.4,20.85l7.32,8.06L31,21.22,33.23,6.46ZM15.83,23.19,12,39.37,22,29.77ZM30.72.25l3.93,5,18.28-5Z"/><path class="cls-2" d="M47.83,9.41a27.51,27.51,0,0,1-.23,3.74c-1.29,0-2.91-.42-2.86,1.79,2,0,2.52,0,2.52,0s-.09,3.93-3,3.78C43.14,24.72,42.13,30,42.13,30H37.4L40,13.2s.6-3.41,3.69-3.78ZM45.76,30l2.49-15.31h4.34l.34,1.15s1.09-1.52,4.36-1.15c-.78,3.73-.92,4.29-.92,4.29s-3.6-.37-3.88.79S50.79,30,50.79,30ZM84.19,17.44c-1-1.75-2.72-3.35-6.87-2.83s-7.13,4.62-6.93,10.16c.43,4.61,3.7,5.43,4.85,5.59,7.8.92,7.89-3.14,7.94-4.67-1.62,0-2.38,0-3.05,0-.19.63-3.35.32-3.35.32s-1.2-.09-1.29-2.21h8.72S85.16,19.2,84.19,17.44Zm-4.47,3.74c-.88.09-3.83,0-3.83,0C77,16.61,80.22,18.6,79.72,21.18Zm65.74-3.74c-1-1.75-2.72-3.35-6.87-2.83s-7.13,4.62-6.93,10.16c.43,4.61,3.7,5.43,4.85,5.59,7.8.92,7.89-3.14,7.94-4.67-1.62,0-2.37,0-3,0-.19.63-3.35.32-3.35.32s-1.2-.09-1.29-2.21h8.71S146.41,19.2,145.46,17.44ZM141,21.18c-.88.09-3.83,0-3.83,0,1.13-4.57,4.32-2.58,3.81,0Z"/><path class="cls-2" d="M70,17.44c-1-1.75-2.72-3.35-6.87-2.83S56,19.23,56.16,24.77c.42,4.61,3.69,5.43,4.84,5.59,7.8.92,7.9-3.14,7.94-4.67-1.61,0-2.37,0-3,0-.19.63-3.35.32-3.35.32s-1.2-.09-1.29-2.21H70s1-4.65,0-6.41Zm-4.48,3.74c-.87.09-3.83,0-3.83,0,1.18-4.57,4.34-2.58,3.83,0Zm22-11.4L84.28,30h5.08L92.77,9.78Zm17,20.21,2.58-15.37h4.53v1.17s1.57-1.7,5.72-1.17,2.07,7.9,2.07,7.9L118.28,30h-5s1.16-7.55,1.38-9.56a1.84,1.84,0,0,0-3.55-.55c-.33,2-1.8,10.11-1.8,10.11ZM127,19h4.57l.42-3s.55-1.38-1.38-1.4-4.85,0-4.85,0-5.67.8-5.35,11.93a4.76,4.76,0,0,0,3.78,4c.42.09,3.35,0,3.35,0s3.28-.42,2.82-4.52c-3.42.09-4.85.23-5-.74s.39-5.86,1.68-6.23Zm19.66.73,6-5.14L150.31,30h-5Z"/><path class="cls-1" d="M153.82,14.6,153,20.11l9.29-5.59Z"/><path class="cls-2" d="M101.54,14.61c-3.83,0-4.71,0-6.13,0S93,16.71,93.1,19H99s.59-.09.65.42,0,1,0,1.48H95.36s-6,.55-4.11,7.79c.37,1.11,2.22,1.88,3.23,1.85a11.54,11.54,0,0,0,4-1.34l0,.88L103,30s1.53-9.46,1.71-10.24.5-3.82-3.19-5.15Zm-4,12c-1.79,0-2-1.73-.61-2.65a3,3,0,0,1,2.27-.24s.07,2.95-1.66,2.89Z"/><text class="cls-3" transform="translate(0 57.18)">Design Your Website Beyond Boundaries</text><path class="cls-4" d="M176.12,29.62a.48.48,0,0,1-.62,0l-3.83-2a1.67,1.67,0,0,0-.23-.12.37.37,0,0,1-.1-.3c0-1.23,0-2.45,0-3.68a.88.88,0,0,1,0-.17.41.41,0,0,1,0-.09c.15-.07.21.05.27.14L176,29.31A.71.71,0,0,1,176.12,29.62Z"/><path class="cls-5" d="M176.12,29.62a16.22,16.22,0,0,1-1.06-1.41c-1.1-1.49-2.19-3-3.29-4.51l-.27-.42a.18.18,0,0,1,.07-.05.59.59,0,0,1,.35.06c1.08.37,2.18.7,3.27,1.07.12,0,.25.05.33.17l.78,4.58A.46.46,0,0,1,176.12,29.62Z"/><path class="cls-5" d="M168.77,19.79a.44.44,0,0,0,.26-.26q.93-1.92,1.89-3.84c.1-.21.22-.42.52-.39a.55.55,0,0,1,.1.39v7.08a1.36,1.36,0,0,1,0,.29.36.36,0,0,1,0,.09c-.2.08-.25-.1-.33-.21-.64-.87-1.27-1.75-1.9-2.62A3,3,0,0,0,168.77,19.79Z"/><path class="cls-5" d="M173.93,19.73l2.76.42,1.77.25c.25,0,.46.12.53.4a.52.52,0,0,1-.3.16q-3.33,1.07-6.64,2.16a1.4,1.4,0,0,1-.46.1.11.11,0,0,1-.08,0c-.07-.12,0-.21.07-.29l2.25-3.1A.23.23,0,0,1,173.93,19.73Z"/><path class="cls-4" d="M171.56,23.17a6.73,6.73,0,0,0,.87-.27l6.36-2.06.2,0a.47.47,0,0,1-.15.5l-3.32,3.23-2.9-.92a10.76,10.76,0,0,0-1.06-.33S171.52,23.2,171.56,23.17Z"/><path class="cls-4" d="M173.93,19.73a19.09,19.09,0,0,1-1.17,1.66c-.41.59-.84,1.18-1.26,1.77a0,0,0,0,1-.06,0V15.3a.45.45,0,0,1,.46.3Z"/><path class="cls-5" d="M171.44,23.28v4.25l-3,1.54a.61.61,0,0,1-.18-.67c.07-.41.13-.82.22-1.23a.45.45,0,0,1,.08-.17L171,23.71a1.44,1.44,0,0,1,.38-.44A.12.12,0,0,1,171.44,23.28Z"/><path class="cls-4" d="M168.77,19.79a.29.29,0,0,1,.28.14c.77,1.08,1.55,2.16,2.33,3.23a.16.16,0,0,1-.08.06.8.8,0,0,1-.4-.08c-1.29-.44-2.6-.83-3.88-1.27a.76.76,0,0,1-.29-.13c-.26-.29-.55-.56-.83-.84a1.26,1.26,0,0,1-.39-.64l2.71-.41Z"/><path class="cls-6" d="M166.76,21.68c.06.1.19,0,.24.12.7.68,1.43,1.34,2.12,2a.21.21,0,0,1,.08.12.14.14,0,0,1-.08.09l-1.4.47c-.12,0-.24.1-.37,0L164,21.29a.43.43,0,0,1-.1-.56A16.62,16.62,0,0,1,166.76,21.68Z"/><path class="cls-7" d="M167.35,24.53l1.41-.44a1.2,1.2,0,0,1,.37-.1.28.28,0,0,1,.06.25c-.15.87-.27,1.75-.47,2.61a.52.52,0,0,1-.06.16l-.06.12a3.4,3.4,0,0,1-.55.86c-.34.48-.69,1-1,1.43-.06.09-.11.22-.26.2a.47.47,0,0,1-.17-.52C166.84,27.57,167.09,26.05,167.35,24.53Z"/><path class="cls-6" d="M166.75,29.62l1.69-2.29.16-.2c-.06.37-.1.75-.19,1.12a1.17,1.17,0,0,0,.07.82l-1.14.6A.46.46,0,0,1,166.75,29.62Z"/><path class="cls-8" d="M166.76,21.68,164,20.8a.29.29,0,0,1-.12-.07.39.39,0,0,1,.38-.3c.4-.07.81-.12,1.21-.17.2.16.23.42.43.59A10.7,10.7,0,0,1,166.76,21.68Z"/><path class="cls-9" d="M171.31,23.17h.25v.11h-.18a.06.06,0,0,1-.08,0A.09.09,0,0,1,171.31,23.17Z"/><path class="cls-4" d="M171.31,23.28h.07L168.73,27l-.07.05c0-.58.19-1.14.26-1.71s.14-.87.21-1.31l.06,0c.06-.1.18-.12.28-.16l1.48-.49C171.07,23.25,171.19,23.18,171.31,23.28Z"/><path class="cls-5" d="M171.31,23.28c-.59.14-1.16.38-1.75.56l-.37.1c-.05,0-.12,0-.16-.08l-2-1.94s-.08-.07,0-.12l.87.26,3.22,1.05a1.8,1.8,0,0,0,.22.06Z"/><path class="cls-4" d="M194.85,29.62c-.19.19-.4.14-.62,0l-3.82-2c-.08,0-.16-.08-.24-.12a.37.37,0,0,1-.1-.3c0-1.23,0-2.45,0-3.68a.88.88,0,0,1,0-.17.36.36,0,0,1,0-.09c.15-.07.21.05.28.14l4.27,5.88A.62.62,0,0,1,194.85,29.62Z"/><path class="cls-5" d="M194.85,29.62a16.11,16.11,0,0,1-1-1.41c-1.11-1.49-2.2-3-3.29-4.51l-.28-.42.08-.05a.58.58,0,0,1,.34.06c1.09.37,2.19.7,3.27,1.07.12,0,.26.05.34.17.26,1.53.51,3,.78,4.58A.48.48,0,0,1,194.85,29.62Z"/><path class="cls-5" d="M187.51,19.79c.14,0,.19-.15.25-.26l1.89-3.84c.11-.21.22-.42.52-.39a.51.51,0,0,1,.1.39v7.08a1.36,1.36,0,0,1,0,.29.18.18,0,0,1,0,.09c-.2.08-.25-.1-.32-.21-.65-.87-1.28-1.75-1.91-2.62A2.92,2.92,0,0,0,187.51,19.79Z"/><path class="cls-5" d="M192.66,19.73l2.76.42,1.78.25c.24,0,.46.12.53.4a.55.55,0,0,1-.31.16q-3.33,1.07-6.64,2.16a1.34,1.34,0,0,1-.45.1.16.16,0,0,1-.09,0c-.06-.12,0-.21.08-.29.74-1,1.49-2.07,2.25-3.1A.16.16,0,0,1,192.66,19.73Z"/><path class="cls-4" d="M190.29,23.17a6.73,6.73,0,0,0,.87-.27l6.37-2.06.2,0a.5.5,0,0,1-.16.5l-3.31,3.23-2.91-.92a9.32,9.32,0,0,0-1.06-.33S190.25,23.2,190.29,23.17Z"/><path class="cls-4" d="M192.66,19.73a19,19,0,0,1-1.16,1.66l-1.27,1.77a0,0,0,0,1-.06,0V15.3a.45.45,0,0,1,.46.3C191.31,17,192,18.35,192.66,19.73Z"/><path class="cls-5" d="M190.17,23.28v4.25l-3,1.54a.61.61,0,0,1-.18-.67c.07-.41.14-.82.23-1.23a.44.44,0,0,1,.07-.17l2.38-3.29a1.77,1.77,0,0,1,.38-.44A.11.11,0,0,1,190.17,23.28Z"/><path class="cls-4" d="M187.51,19.79a.28.28,0,0,1,.27.14c.78,1.08,1.55,2.16,2.33,3.23a.16.16,0,0,1-.08.06.8.8,0,0,1-.4-.08c-1.29-.44-2.59-.83-3.88-1.27a.84.84,0,0,1-.29-.13c-.26-.29-.54-.56-.82-.84a1.19,1.19,0,0,1-.39-.64l2.7-.41Z"/><path class="cls-6" d="M185.5,21.68c.05.1.18,0,.23.12.71.68,1.44,1.34,2.12,2a.19.19,0,0,1,.09.12.16.16,0,0,1-.09.09l-1.4.47c-.12,0-.24.1-.36,0l-3.34-3.24a.44.44,0,0,1-.1-.56A17,17,0,0,1,185.5,21.68Z"/><path class="cls-7" d="M186.09,24.53l1.41-.44a1.14,1.14,0,0,1,.36-.1.26.26,0,0,1,.06.25c-.15.87-.26,1.75-.47,2.61a.52.52,0,0,1-.06.16l-.06.12a3.4,3.4,0,0,1-.55.86c-.34.48-.69,1-1,1.43-.06.09-.1.22-.26.2a.47.47,0,0,1-.17-.52Z"/><path class="cls-6" d="M185.48,29.62c.57-.76,1.13-1.52,1.69-2.29l.16-.2c-.06.37-.1.75-.18,1.12a1.16,1.16,0,0,0,.06.82c-.38.2-.75.41-1.14.6A.46.46,0,0,1,185.48,29.62Z"/><path class="cls-8" d="M185.5,21.68l-2.73-.88a.37.37,0,0,1-.12-.07.41.41,0,0,1,.39-.3c.4-.07.8-.12,1.21-.17.19.16.22.42.43.59S185.23,21.4,185.5,21.68Z"/><path class="cls-9" d="M190.05,23.17h.24v.11h-.18a0,0,0,0,1-.07,0A.09.09,0,0,1,190.05,23.17Z"/><path class="cls-4" d="M190.05,23.28h.06L187.46,27l-.07.05a16.44,16.44,0,0,1,.27-1.71c.05-.44.13-.87.2-1.31l.06,0a.53.53,0,0,1,.28-.16l1.48-.49C189.8,23.25,189.93,23.18,190.05,23.28Z"/><path class="cls-5" d="M190.05,23.28c-.6.14-1.17.38-1.76.56l-.37.1a.71.71,0,0,1-.15-.08l-2-1.94s-.08-.07,0-.12l.88.26,3.21,1.05.23.06Z"/><path class="cls-4" d="M212.85,29.62a.48.48,0,0,1-.62,0l-3.82-2c-.08,0-.16-.08-.24-.12a.37.37,0,0,1-.1-.3c0-1.23,0-2.45,0-3.68a.47.47,0,0,1,0-.17.36.36,0,0,1,0-.09c.15-.07.21.05.28.14l4.27,5.88A.62.62,0,0,1,212.85,29.62Z"/><path class="cls-5" d="M212.85,29.62a16.11,16.11,0,0,1-1-1.41c-1.11-1.49-2.2-3-3.29-4.51l-.28-.42.08-.05a.58.58,0,0,1,.34.06c1.09.37,2.19.7,3.27,1.07.12,0,.26.05.34.17.25,1.53.51,3,.78,4.58A.48.48,0,0,1,212.85,29.62Z"/><path class="cls-5" d="M205.51,19.79c.14,0,.19-.15.25-.26l1.89-3.84c.11-.21.22-.42.52-.39a.51.51,0,0,1,.1.39v7.08a1.36,1.36,0,0,1,0,.29.36.36,0,0,1,0,.09c-.2.08-.25-.1-.33-.21-.64-.87-1.27-1.75-1.9-2.62A2.92,2.92,0,0,0,205.51,19.79Z"/><path class="cls-5" d="M210.66,19.73l2.76.42,1.78.25c.24,0,.46.12.53.4a.55.55,0,0,1-.31.16q-3.33,1.07-6.64,2.16a1.4,1.4,0,0,1-.45.1.16.16,0,0,1-.09,0c-.07-.12,0-.21.08-.29.74-1,1.49-2.07,2.25-3.1A.16.16,0,0,1,210.66,19.73Z"/><path class="cls-4" d="M208.29,23.17a6.73,6.73,0,0,0,.87-.27l6.37-2.06.2,0a.5.5,0,0,1-.16.5l-3.31,3.23-2.91-.92a9.32,9.32,0,0,0-1.06-.33S208.25,23.2,208.29,23.17Z"/><path class="cls-4" d="M210.66,19.73a19,19,0,0,1-1.16,1.66l-1.27,1.77a0,0,0,0,1-.06,0V15.3a.45.45,0,0,1,.46.3C209.31,17,210,18.35,210.66,19.73Z"/><path class="cls-5" d="M208.17,23.28v4.25l-3,1.54a.61.61,0,0,1-.18-.67c.07-.41.14-.82.23-1.23a.44.44,0,0,1,.07-.17l2.38-3.29a1.77,1.77,0,0,1,.38-.44A.11.11,0,0,1,208.17,23.28Z"/><path class="cls-4" d="M205.51,19.79a.29.29,0,0,1,.27.14c.78,1.08,1.55,2.16,2.33,3.23a.16.16,0,0,1-.08.06.8.8,0,0,1-.4-.08c-1.29-.44-2.59-.83-3.88-1.27a.84.84,0,0,1-.29-.13c-.26-.29-.54-.56-.82-.84a1.19,1.19,0,0,1-.39-.64l2.7-.41Z"/><path class="cls-6" d="M203.5,21.68c.05.1.18,0,.23.12.71.68,1.44,1.34,2.12,2a.19.19,0,0,1,.09.12.2.2,0,0,1-.09.09l-1.4.47c-.12,0-.24.1-.36,0l-3.34-3.24a.44.44,0,0,1-.1-.56A17,17,0,0,1,203.5,21.68Z"/><path class="cls-7" d="M204.09,24.53l1.41-.44a1.14,1.14,0,0,1,.36-.1.28.28,0,0,1,.06.25c-.15.87-.26,1.75-.47,2.61a.52.52,0,0,1-.06.16l-.06.12a3.4,3.4,0,0,1-.55.86c-.34.48-.69,1-1,1.43-.06.09-.1.22-.26.2a.47.47,0,0,1-.17-.52Z"/><path class="cls-6" d="M203.48,29.62c.56-.76,1.13-1.52,1.69-2.29l.16-.2c-.06.37-.1.75-.19,1.12a1.22,1.22,0,0,0,.07.82c-.38.2-.75.41-1.14.6A.46.46,0,0,1,203.48,29.62Z"/><path class="cls-8" d="M203.5,21.68l-2.73-.88a.37.37,0,0,1-.12-.07.4.4,0,0,1,.38-.3c.41-.07.81-.12,1.22-.17.19.16.22.42.43.59S203.22,21.4,203.5,21.68Z"/><path class="cls-9" d="M208.05,23.17h.24v.11h-.18a0,0,0,0,1-.07,0A.09.09,0,0,1,208.05,23.17Z"/><path class="cls-4" d="M208.05,23.28h.06L205.46,27l-.07.05a16.44,16.44,0,0,1,.27-1.71c.05-.44.13-.87.2-1.31l.06,0a.53.53,0,0,1,.28-.16l1.48-.49C207.8,23.25,207.92,23.18,208.05,23.28Z"/><path class="cls-5" d="M208.05,23.28c-.6.14-1.17.38-1.76.56l-.37.1a.71.71,0,0,1-.15-.08l-2-1.94s-.08-.07,0-.12l.87.26,3.22,1.05a1.55,1.55,0,0,0,.23.06Z"/><path class="cls-4" d="M230.72,29.62a.48.48,0,0,1-.62,0l-3.82-2-.24-.12a.37.37,0,0,1-.1-.3c0-1.23,0-2.45,0-3.68a.86.86,0,0,1,0-.17.36.36,0,0,1,0-.09c.15-.07.21.05.28.14l4.27,5.88A.62.62,0,0,1,230.72,29.62Z"/><path class="cls-5" d="M230.72,29.62a16.11,16.11,0,0,1-1.05-1.41c-1.11-1.49-2.2-3-3.29-4.51l-.28-.42.08-.05a.58.58,0,0,1,.34.06c1.09.37,2.18.7,3.27,1.07.12,0,.25.05.34.17.25,1.53.51,3,.78,4.58A.48.48,0,0,1,230.72,29.62Z"/><path class="cls-5" d="M223.38,19.79c.14,0,.19-.15.25-.26l1.89-3.84c.11-.21.22-.42.52-.39a.51.51,0,0,1,.1.39v7.08a1.36,1.36,0,0,1,0,.29.36.36,0,0,1,0,.09c-.2.08-.25-.1-.33-.21-.64-.87-1.27-1.75-1.9-2.62A2.92,2.92,0,0,0,223.38,19.79Z"/><path class="cls-5" d="M228.53,19.73l2.76.42,1.78.25c.24,0,.46.12.53.4a.55.55,0,0,1-.31.16Q230,22,226.65,23.12a1.4,1.4,0,0,1-.45.1.16.16,0,0,1-.09,0c-.07-.12,0-.21.08-.29.74-1,1.49-2.07,2.25-3.1A.16.16,0,0,1,228.53,19.73Z"/><path class="cls-4" d="M226.16,23.17a6.73,6.73,0,0,0,.87-.27l6.37-2.06.2,0a.5.5,0,0,1-.16.5l-3.31,3.23-2.91-.92a9.32,9.32,0,0,0-1.06-.33S226.12,23.2,226.16,23.17Z"/><path class="cls-4" d="M228.53,19.73a19,19,0,0,1-1.16,1.66l-1.27,1.77a0,0,0,0,1-.06,0V15.3a.45.45,0,0,1,.46.3C227.18,17,227.86,18.35,228.53,19.73Z"/><path class="cls-5" d="M226,23.28v4.25l-3,1.54a.61.61,0,0,1-.18-.67c.07-.41.14-.82.23-1.23a.44.44,0,0,1,.07-.17l2.38-3.29a1.77,1.77,0,0,1,.38-.44A.11.11,0,0,1,226,23.28Z"/><path class="cls-4" d="M223.38,19.79a.29.29,0,0,1,.27.14c.77,1.08,1.55,2.16,2.33,3.23a.16.16,0,0,1-.08.06.8.8,0,0,1-.4-.08c-1.29-.44-2.59-.83-3.88-1.27a.84.84,0,0,1-.29-.13c-.26-.29-.54-.56-.82-.84a1.19,1.19,0,0,1-.39-.64l2.7-.41Z"/><path class="cls-6" d="M221.37,21.68c0,.1.18,0,.23.12.7.68,1.44,1.34,2.12,2a.19.19,0,0,1,.09.12.2.2,0,0,1-.09.09l-1.4.47c-.12,0-.24.1-.36,0l-3.34-3.24a.44.44,0,0,1-.1-.56A17,17,0,0,1,221.37,21.68Z"/><path class="cls-7" d="M222,24.53l1.41-.44a1.14,1.14,0,0,1,.36-.1.28.28,0,0,1,.06.25c-.15.87-.26,1.75-.47,2.61a.52.52,0,0,1-.06.16l-.06.12a3.4,3.4,0,0,1-.55.86c-.34.48-.69,1-1,1.43-.06.09-.1.22-.26.2a.47.47,0,0,1-.17-.52Z"/><path class="cls-6" d="M221.35,29.62c.56-.76,1.13-1.52,1.69-2.29l.16-.2c-.06.37-.1.75-.19,1.12a1.22,1.22,0,0,0,.07.82c-.38.2-.75.41-1.14.6A.46.46,0,0,1,221.35,29.62Z"/><path class="cls-8" d="M221.37,21.68l-2.73-.88a.37.37,0,0,1-.12-.07.4.4,0,0,1,.38-.3c.41-.07.81-.12,1.22-.17.19.16.22.42.43.59S221.09,21.4,221.37,21.68Z"/><path class="cls-9" d="M225.92,23.17h.24v.11H226s0,0-.07,0A.09.09,0,0,1,225.92,23.17Z"/><path class="cls-4" d="M225.92,23.28H226L223.33,27l-.07.05a16.44,16.44,0,0,1,.27-1.71c.05-.44.13-.87.2-1.31l.06,0a.53.53,0,0,1,.28-.16l1.48-.49C225.67,23.25,225.79,23.18,225.92,23.28Z"/><path class="cls-5" d="M225.92,23.28c-.6.14-1.17.38-1.76.56l-.37.1a.71.71,0,0,1-.15-.08l-2-1.94s-.08-.07,0-.12l.87.26,3.22,1.05a1.55,1.55,0,0,0,.23.06Z"/><path class="cls-4" d="M248.72,29.62a.48.48,0,0,1-.62,0l-3.82-2-.24-.12a.37.37,0,0,1-.1-.3c0-1.23,0-2.45,0-3.68a.47.47,0,0,1,0-.17.18.18,0,0,1,0-.09c.15-.07.21.05.28.14l4.27,5.88A.62.62,0,0,1,248.72,29.62Z"/><path class="cls-5" d="M248.72,29.62a16.11,16.11,0,0,1-1.05-1.41c-1.11-1.49-2.2-3-3.29-4.51l-.28-.42.08-.05a.58.58,0,0,1,.34.06c1.09.37,2.18.7,3.27,1.07.12,0,.25.05.33.17.26,1.53.52,3,.79,4.58A.48.48,0,0,1,248.72,29.62Z"/><path class="cls-5" d="M241.38,19.79c.14,0,.19-.15.25-.26l1.89-3.84c.1-.21.22-.42.52-.39a.51.51,0,0,1,.1.39v7.08a1.36,1.36,0,0,1,0,.29.36.36,0,0,1,0,.09c-.2.08-.25-.1-.33-.21-.64-.87-1.27-1.75-1.9-2.62A2.92,2.92,0,0,0,241.38,19.79Z"/><path class="cls-5" d="M246.53,19.73l2.76.42,1.78.25c.24,0,.46.12.52.4a.49.49,0,0,1-.3.16Q248,22,244.65,23.12a1.4,1.4,0,0,1-.46.1.13.13,0,0,1-.08,0c-.07-.12,0-.21.07-.29.75-1,1.5-2.07,2.26-3.1A.16.16,0,0,1,246.53,19.73Z"/><path class="cls-4" d="M244.16,23.17a6.73,6.73,0,0,0,.87-.27l6.36-2.06.2,0a.47.47,0,0,1-.15.5l-3.32,3.23-2.9-.92a9.32,9.32,0,0,0-1.06-.33S244.12,23.2,244.16,23.17Z"/><path class="cls-4" d="M246.53,19.73a19,19,0,0,1-1.16,1.66l-1.27,1.77a0,0,0,0,1-.06,0V15.3a.45.45,0,0,1,.46.3Z"/><path class="cls-5" d="M244,23.28v4.25l-3,1.54a.61.61,0,0,1-.18-.67c.07-.41.14-.82.22-1.23a.67.67,0,0,1,.08-.17l2.38-3.29a1.77,1.77,0,0,1,.38-.44A.11.11,0,0,1,244,23.28Z"/><path class="cls-4" d="M241.38,19.79a.29.29,0,0,1,.27.14c.77,1.08,1.55,2.16,2.33,3.23a.16.16,0,0,1-.08.06.8.8,0,0,1-.4-.08c-1.29-.44-2.59-.83-3.88-1.27a.76.76,0,0,1-.29-.13c-.26-.29-.54-.56-.83-.84a1.33,1.33,0,0,1-.39-.64l2.71-.41Z"/><path class="cls-6" d="M239.36,21.68c.06.1.19,0,.24.12.7.68,1.43,1.34,2.12,2a.23.23,0,0,1,.09.12.2.2,0,0,1-.09.09l-1.4.47c-.12,0-.24.1-.37,0l-3.33-3.24a.44.44,0,0,1-.1-.56A16.62,16.62,0,0,1,239.36,21.68Z"/><path class="cls-7" d="M240,24.53l1.42-.44a1.14,1.14,0,0,1,.36-.1.28.28,0,0,1,.06.25c-.15.87-.26,1.75-.47,2.61a.52.52,0,0,1-.06.16l-.06.12a3.4,3.4,0,0,1-.55.86c-.34.48-.69,1-1,1.43-.06.09-.11.22-.26.2a.47.47,0,0,1-.17-.52C239.44,27.57,239.7,26.05,240,24.53Z"/><path class="cls-6" d="M239.35,29.62c.56-.76,1.13-1.52,1.69-2.29l.16-.2c-.06.37-.1.75-.19,1.12a1.22,1.22,0,0,0,.07.82c-.38.2-.75.41-1.14.6A.46.46,0,0,1,239.35,29.62Z"/><path class="cls-8" d="M239.36,21.68l-2.72-.88a.37.37,0,0,1-.12-.07.4.4,0,0,1,.38-.3c.41-.07.81-.12,1.21-.17.2.16.23.42.43.59A10.7,10.7,0,0,1,239.36,21.68Z"/><path class="cls-9" d="M243.92,23.17h.24v.11H244s0,0-.07,0S243.88,23.2,243.92,23.17Z"/><path class="cls-4" d="M243.92,23.28H244L241.33,27l-.07.05c0-.58.19-1.14.26-1.71s.14-.87.21-1.31l.06,0a.53.53,0,0,1,.28-.16l1.48-.49C243.67,23.25,243.79,23.18,243.92,23.28Z"/><path class="cls-5" d="M243.92,23.28c-.6.14-1.17.38-1.76.56l-.37.1a.71.71,0,0,1-.15-.08l-2-1.94s-.08-.07,0-.12l.87.26,3.22,1.05a1.55,1.55,0,0,0,.23.06Z"/></g></g></svg>